
<svg width="53px" height="28px" viewBox="151 55 53 28" version="1.1" xmlns="http://www.w3.org/2000/svg" xmlns:xlink="http://www.w3.org/1999/xlink">
    <!-- Generator: Sketch 3.7.2 (28276) - http://www.bohemiancoding.com/sketch -->
    <desc>Created with Sketch.</desc>
    <defs>
        <polygon id="path-1" points="22.8463988 25.6231884 0 25.6231884 0 0.17354895 22.8463988 0.17354895 22.8463988 25.6231884"></polygon>
        <polygon id="path-3" points="17.0297497 12.8826986 17.0297497 0.379524638 0.227665455 0.379524638 0.227665455 12.8826986 17.0297497 12.8826986"></polygon>
    </defs>
    <g id="Page-1" stroke="none" stroke-width="1" fill="none" fill-rule="evenodd" transform="translate(151.000000, 55.623188)">
        <g id="Group-3" transform="translate(0.000000, 0.109255)">
            <mask id="mask-2" fill="white">
                <use xlink:href="#path-1"></use>
            </mask>
            <g id="Clip-2"></g>
            <path d="M1.60891893,25.483608 C1.39402267,25.412108 1.2663307,25.3001949 1.04520556,25.2442384 C0.898826952,25.2038254 0.724418396,25.1944993 0.596726417,25.1043471 C0.441004492,24.9924341 0.441004492,24.8867384 0.353800214,24.7313036 C0.188734973,24.4421949 -0.0012457754,24.2960862 -0.0012457754,23.9199341 C-0.0012457754,23.2049341 0.307083636,22.5738688 0.693274011,21.6412601 C1.01717561,20.8609775 1.39090824,20.1584123 1.79578524,19.4247601 C2.18509005,18.7128688 2.4716184,17.9263688 2.91075422,17.2486732 C3.30940235,16.6238254 3.86377241,16.086021 4.15652963,15.4052167 C4.49600342,14.6311514 5.04103016,13.9348036 5.49885262,13.226021 C5.97847615,12.4799341 6.43629861,11.6965428 6.97198203,10.9877601 C7.19933604,10.6924341 7.44226225,10.4219775 7.62289968,10.0924558 C7.82845262,9.72873841 7.99351786,9.35258623 8.23021519,9.00441232 C8.71606759,8.3018471 9.22060663,7.59617319 9.72514567,6.90915145 C10.2047692,6.25943406 10.7622537,5.19004275 11.2076184,4.56208623 C11.2792505,4.45639058 11.3415393,4.36312971 11.3446537,4.28852101 C11.3477681,4.20769493 11.2948227,4.1548471 11.1546729,4.1548471 C10.6594772,4.1548471 10.2857446,4.27608623 9.79366332,4.35069493 C9.44173176,4.40354275 9.11783016,4.55586884 8.75966973,4.60249928 C8.32676278,4.66156449 7.89697027,4.62736884 7.46406332,4.68332536 C6.6698815,4.78591232 5.89438631,4.93823841 4.92579594,5.35480362 C4.63615316,5.48226014 4.15030075,5.53821667 3.7578815,5.53821667 C3.25334246,5.53821667 3.27202909,4.95378188 3.27202909,4.53721667 C3.27202909,4.26365145 3.49315422,3.77869493 3.54921412,3.54865145 C3.64264727,3.16939058 3.82017027,2.71241232 4.10046973,2.45749928 C4.3807692,2.20258623 4.55206332,2.06580362 4.9071093,1.89482536 C5.10954781,1.7984558 5.38050396,1.59328188 5.65768898,1.59328188 C5.86012749,1.59328188 5.90372963,1.74560797 6.07502374,1.74560797 C6.23386011,1.74560797 6.52661733,1.57773841 6.7508569,1.57773841 C6.92837989,1.57773841 7.03115636,1.62747754 7.28342588,1.62747754 C7.45160556,1.62747754 7.60109861,1.58706449 7.77550717,1.53732536 C8.03400556,1.46893406 8.37036492,1.31660797 8.60083337,1.31660797 C8.79392856,1.31660797 8.84687401,1.39432536 8.94030717,1.38810797 C9.01193925,1.38499928 9.11160128,1.31039058 9.16454674,1.27619493 C9.36075636,1.1518471 9.41370182,1.14252101 9.64105583,1.09278188 C9.70645904,1.0803471 9.79054888,1.03993406 9.85906652,1.03993406 C9.91824086,1.03993406 9.9462708,1.10521667 10.011674,1.10521667 C10.1300227,1.10521667 10.1518237,1.02749928 10.267058,1.02749928 C10.3822922,1.02749928 10.3822922,1.09899928 10.5037553,1.09899928 C10.5753874,1.09899928 10.6625917,1.04926014 10.7248804,1.04304275 C10.9522344,1.0088471 11.1546729,1.00262971 11.3789125,0.940455797 C11.7308441,0.844086232 12.1544077,0.657564493 12.4347072,0.657564493 C12.6091157,0.657564493 12.8676141,0.760151449 13.0793959,0.766368841 C13.151028,0.769477536 13.2257745,0.760151449 13.328551,0.744607971 C14.116504,0.629586232 14.9324868,0.349803623 15.7328975,0.349803623 C16.0256548,0.349803623 16.3059542,0.492803623 16.5862537,0.492803623 C16.8914687,0.492803623 17.1437382,0.331151449 17.4800975,0.331151449 C17.6763072,0.331151449 17.7043371,0.371564493 17.8974323,0.368455797 C18.0780697,0.365347101 18.1123286,0.293847101 18.2493639,0.219238406 C18.392628,0.138412319 18.5421211,0.188151449 18.697843,0.194368841 C18.9719136,0.209912319 19.2459842,0.197477536 19.5169403,0.197477536 C19.8595286,0.197477536 20.2706344,0.225455797 20.6755114,0.30939058 C21.1925082,0.421303623 21.6970473,0.635803623 22.0365211,1.02749928 C22.242074,1.26686884 22.3728804,1.55908623 22.6002344,1.78291232 C22.696782,1.87928188 22.7715286,1.93212971 22.8057874,2.07512971 C22.8369318,2.20880362 22.8649617,2.37978188 22.8307029,2.50723841 C22.8026729,2.61293406 22.7092398,2.76215145 22.6251499,2.83054275 C22.5005724,2.93002101 22.4133681,2.86162971 22.291905,2.92380362 C22.1455264,3.00152101 22.1237253,3.1569558 21.9555457,3.1569558 C21.8278537,3.1569558 21.6223007,3.05126014 21.510181,3.05126014 C21.3700312,3.05126014 21.2859414,3.12276014 21.1084184,3.12276014 C20.9838409,3.12276014 20.8872933,3.05126014 20.7284569,3.05126014 C20.4886451,3.05126014 20.3111221,3.17560797 20.1055692,3.17560797 C19.9187029,3.17560797 19.7411799,3.11343406 19.5511991,3.11343406 C19.2117253,3.11343406 18.9033959,3.23467319 18.5234344,3.32482536 C18.1403585,3.41497754 17.6420483,3.43052101 17.2029125,3.49891232 C16.8790109,3.54865145 16.4211884,3.54554275 16.0941724,3.56108623 C15.6550366,3.5828471 15.4899713,3.5859558 15.2252441,3.98076014 C15.0072334,4.30406449 14.7861082,4.68643406 14.4092612,5.35169493 C14.2192804,5.68743406 13.9514387,5.97343406 13.7801446,6.32160797 C13.4655863,6.96510797 12.8987585,7.42830362 12.5655136,8.06558623 C12.1948954,8.76815145 11.6965852,9.39921667 11.304166,10.0924558 C11.1359863,10.3939993 11.0300954,10.7173036 10.8619157,11.0188471 C10.643905,11.4012167 10.3542622,11.7307384 10.1144505,12.0975645 C9.94938524,12.3586949 9.86218096,12.7659341 9.69088684,13.0239558 C9.5009061,13.3130645 9.20814888,13.4995862 9.01816813,13.7949123 C8.87490396,14.0249558 8.63820663,14.2021514 8.54477348,14.4539558 C8.41085262,14.8021297 8.33922053,15.0383906 8.14923979,15.3523688 C7.72567615,16.0549341 7.24916706,16.6424775 6.86297668,17.3668036 C6.68856813,17.690108 6.59824941,18.0538254 6.42384086,18.374021 C6.23074567,18.7284123 5.94421733,19.0423906 5.71997775,19.375021 C5.34001626,19.9501297 5.22166759,20.4972601 4.69221305,21.1096732 C4.51157561,21.3148471 4.45240128,21.6568036 4.35896813,21.9179341 C4.22193283,22.3096297 4.05063872,22.6453688 3.84508578,23.0059775 C3.46200984,23.6898906 3.21285476,24.4421949 2.76749005,25.0732601 C2.65848471,25.2255862 2.40621519,25.6234993 2.08854246,25.6234993 C1.94216385,25.6234993 1.72726759,25.5209123 1.60891893,25.483608" id="Fill-1" fill="#FFFFFF" mask="url(#mask-2)"></path>
        </g>
        <path d="M14.7776993,10.2495843 C14.7776993,9.29210609 15.4940201,8.30664957 16.2632864,7.82169304 C16.6276757,7.59164957 17.2412201,7.38336696 17.6492116,7.38336696 C18.1630939,7.38336696 18.5710853,8.21649739 18.5710853,8.81647565 C18.5710853,9.27656261 18.3779902,9.85478 18.0354019,10.3521713 C17.7333014,10.7873887 17.3689121,11.2785626 16.9515773,11.6143017 C16.7024222,11.816367 16.3473763,12.0059974 16.0079025,12.0059974 C15.2479795,12.0059974 14.7776993,10.8340191 14.7776993,10.2495843 M9.45512385,24.3413017 C9.04713241,24.1454539 8.88829604,23.8003887 8.68897198,23.4180191 C8.41801583,22.898867 8.28098053,22.3517365 8.28098053,21.8698887 C8.28098053,21.4160191 8.3993292,20.9310626 8.45538909,20.5828887 C8.52390674,20.15078 8.8042062,20.0015626 9.01287358,19.6347365 C9.06893348,19.5321496 9.27448642,19.1995191 9.27448642,19.0751713 C9.27448642,18.9197365 9.08139123,18.9943452 9.08139123,18.8451278 C9.08139123,18.7114539 9.23711316,18.5964322 9.31808856,18.4938452 C9.4675816,18.3042148 9.58281583,18.108367 9.69182118,17.8907583 C9.86311529,17.5643452 10.0344094,17.2721278 10.2835645,16.9954539 C10.5514062,16.7063452 10.5576351,16.392367 10.7663025,16.0783887 C10.9500543,15.7986061 11.0995474,15.50328 11.2801848,15.2234974 C11.4950811,14.900193 11.6975196,14.50228 11.9404458,14.2007365 C12.1709142,13.9209539 12.5415324,13.7251061 12.7470853,13.4328887 C12.8124886,13.3458452 12.8124886,13.2432583 12.8529763,13.1499974 C12.9308372,12.9572583 13.0741014,12.8453452 13.22048,12.7085626 C13.4353763,12.5033887 13.6876458,12.0681713 14.0395773,12.0681713 C14.2451303,12.0681713 14.3915089,12.2329322 14.5098575,12.3541713 C14.6593506,12.5127148 14.8493313,12.6277365 15.0019388,12.78628 C15.2199495,13.0194322 15.3040394,13.28678 15.3040394,13.5634539 C15.3040394,14.1261278 14.96768,14.7323235 14.6936094,15.1830843 C14.4724843,15.5468017 14.2015281,15.8856496 14.0084329,16.2649104 C13.8122233,16.6503887 13.6720736,17.0327583 13.3948886,17.3747148 C13.2765399,17.5239322 13.1363902,17.6389539 13.042957,17.8068235 C12.9464094,17.974693 12.9059217,18.1705409 12.8062597,18.3415191 C12.6131645,18.6679322 12.3141784,18.9197365 12.1179688,19.2461496 C11.906187,19.6005409 11.6663752,19.9424974 11.4608222,20.29378 C11.2521549,20.6450626 10.9874276,21.5932148 10.9843132,21.8325843 C10.9780843,22.0315409 11.068403,22.1092583 11.2085527,22.1092583 C11.5947431,22.1092583 12.3546661,21.5341496 12.5820201,21.3476278 C13.2734255,20.7911713 14.1859559,20.1228017 14.7776993,19.4637583 C15.3974725,18.7736278 16.9328907,17.1944104 17.5059474,16.4669757 C17.7924757,16.1032583 18.0945763,15.7457583 18.3811046,15.3820409 C18.5087966,15.2203887 18.6364886,15.0587365 18.7610661,14.8970843 C18.9541613,14.6514974 19.1036543,14.3406278 19.2749484,14.3406278 C19.577049,14.3406278 19.6237656,15.0245409 19.6331089,15.2452583 C19.6549099,15.7457583 19.5614768,16.1374539 19.3590383,16.5851061 C18.9853057,17.4182365 18.3188158,18.2078452 17.801819,18.9228452 C17.4997185,19.3394104 16.1916543,20.6699322 15.8584094,21.0647365 C15.5438511,21.43778 14.7870426,22.0750626 14.4475688,22.4263452 C13.7281335,23.1724322 13.1239324,23.5485843 12.2238597,24.0894974 C11.7162062,24.3941496 11.1275773,24.5806713 10.5389484,24.5806713 C10.1714447,24.5806713 9.80082652,24.5091713 9.45512385,24.3413017" id="Fill-4" fill="#FFFFFF"></path>
        <path d="M16.8905343,22.5519365 C16.6444937,22.2286322 16.4825429,22.0390017 16.4513985,21.6348713 C16.4295974,21.3644148 16.3922242,21.1561322 16.3922242,20.9012191 C16.3922242,20.6929365 16.4700851,20.4286974 16.4700851,20.2950235 C16.4700851,20.0991757 16.4389407,20.0276757 16.4389407,19.9157626 C16.4389407,19.6453061 16.504344,19.4401322 16.7348124,19.2722626 C16.8282456,19.20698 16.9247932,19.1385887 16.9870819,19.023567 C17.0213407,18.9645017 17.0306841,18.9271974 17.0306841,18.9023278 C17.0306841,18.84948 16.9777386,18.8619148 16.9341365,18.7593278 C16.9061065,18.7033713 16.8407033,18.6971539 16.8407033,18.6287626 C16.8407033,18.5821322 16.9372509,18.5044148 16.959052,18.4422409 C17.0057686,18.3210017 16.9559375,18.1593496 17.0151119,18.0536539 C17.0836295,17.9417409 17.2518092,17.888893 17.3327846,17.77698 C17.4791632,17.5811322 17.4417899,17.3510887 17.6224274,17.1770017 C17.7283183,17.0775235 17.7750349,17.0744148 17.8622391,16.9407409 C17.9650156,16.7821974 18.0989365,16.6391974 18.1892552,16.4744365 C18.3325194,16.1977626 18.4633258,15.9770452 18.6533065,15.7221322 C18.706252,15.6475235 18.9273771,15.4112626 18.9273771,15.2806974 C18.9273771,15.2216322 18.8993472,15.1687843 18.8588595,15.1687843 C18.8121429,15.1656757 18.7623119,15.2216322 18.706252,15.2216322 C18.6595354,15.2216322 18.6408488,15.1998713 18.6408488,15.1594583 C18.6408488,14.876567 19.6810712,13.8165017 19.7838477,13.6330887 C19.8399076,13.5305017 19.8554798,13.4092626 19.920883,13.312893 C19.9925151,13.2103061 20.1077493,13.1512409 20.1856103,13.0486539 C20.3506755,12.8310452 20.4098498,12.5605887 20.5873728,12.3274365 C20.7960402,12.0507626 20.9829065,11.7554365 21.1822306,11.4694365 C21.362868,11.2083061 21.7366006,10.7948496 21.7366006,10.48398 C21.7366006,10.2881322 21.6151375,10.2725887 21.5030178,10.2725887 C21.3815547,10.2725887 21.2974648,10.3161104 21.1199418,10.3161104 C20.9891354,10.3161104 20.9361899,10.2943496 20.8178413,10.2756974 C20.5936017,10.2477191 20.5095119,10.1917626 20.3319889,10.0767409 C20.0423461,9.88400174 19.6281258,9.95550174 19.3291397,9.77830609 C19.033268,9.60421913 18.9522926,9.1938713 18.8432873,8.89232783 C18.7903418,8.74621913 18.7124809,8.59078435 18.7124809,8.47265391 C18.7124809,8.37939304 18.7623119,8.30478435 18.9180338,8.27369739 C19.338483,8.18976261 19.7776188,8.14934957 20.2011825,8.08717565 C20.9829065,7.96904522 21.4313857,7.86024087 22.2162242,7.7638713 C22.5338969,7.72345826 23.2284167,7.75143652 23.5367461,7.66439304 C23.8637621,7.56802348 24.0039119,7.28824087 24.1907782,7.02711043 C24.5863119,6.47065391 25.0690498,5.98880609 25.4801557,5.43545826 C25.6732509,5.17432783 25.9130627,4.9100887 26.0781279,4.63341478 C26.14976,4.51217565 26.1777899,4.37850174 26.227621,4.24793652 C26.299253,4.04898 26.4207161,3.92774087 26.5390648,3.7598713 C26.7228167,3.50495826 26.7975632,3.10704522 27.1588381,3.10704522 C27.4235653,3.10704522 27.719437,3.29667565 27.9312188,3.4085887 C28.4544445,3.6883713 28.8499782,4.12980609 28.8499782,4.70802348 C28.8499782,5.23650174 28.579022,5.55669739 28.2987226,5.90798 C28.0526819,6.21574087 27.8502434,6.5545887 27.6353472,6.87789304 C27.541914,7.01778435 27.3955354,7.17321913 27.3955354,7.29756696 C27.3955354,7.44056696 27.6540338,7.51517565 27.847129,7.51517565 C28.1149707,7.51517565 28.3485536,7.46543652 28.6195097,7.41569739 C28.8157194,7.38150174 29.1209343,7.38461043 29.3950049,7.38461043 C29.6753044,7.38461043 30.376053,7.44056696 30.6501236,7.6923713 C30.8463333,7.86956696 30.8805921,8.22084957 31.0020552,8.45400174 C31.0799161,8.60321913 31.1390905,8.70891478 31.1390905,8.8425887 C31.1390905,8.99491478 31.064344,9.17521913 30.8681343,9.25604522 C30.5598049,9.38039304 30.2172167,9.4083713 29.9026584,9.52339304 C29.5071247,9.66639304 29.1178199,9.69748 28.7035996,9.75032783 C28.5167333,9.7720887 28.3423247,9.79695826 28.1772595,9.79695826 C28.0121942,9.79695826 27.8689301,9.75343652 27.6851782,9.75343652 C27.5138841,9.75343652 27.2304702,9.80628435 27.0186883,9.80628435 C26.8442798,9.80628435 26.6979012,9.85291478 26.6200402,9.87467565 C26.4736616,9.91819739 26.3241686,9.97104522 26.1653322,9.97104522 C26.0096103,9.97104522 25.9628937,9.9088713 25.7822563,9.9088713 C25.7075097,9.9088713 25.6078477,9.93063217 25.6078477,9.9865887 C25.6078477,10.0487626 25.6825942,10.0674148 25.6825942,10.1326974 C25.6825942,10.1917626 25.5891611,10.2415017 25.4116381,10.3036757 C24.7544916,10.5306104 24.4959932,11.382393 24.1658627,11.9481757 C23.7765579,12.6103278 23.2844766,13.1978713 22.8671418,13.84448 C22.4248916,14.5315017 22.0978755,15.2806974 21.618252,15.949067 C21.2196039,16.5024148 20.7742391,17.0060235 20.453452,17.6153278 C20.2697001,17.9666104 20.2105258,18.3241104 20.0018584,18.6722843 C19.7776188,19.0297843 19.5440359,19.3872843 19.3571696,19.7665452 C19.2793087,19.9281974 19.1267012,20.1986539 19.1235867,20.4255887 C19.1173579,20.6214365 19.2481643,20.7768713 19.4630605,20.7768713 C19.6468124,20.7768713 19.8617087,20.677393 20.0018584,20.6121104 C20.7026071,20.2732626 21.3099226,19.7820887 21.8674071,19.247393 C22.399976,18.7313496 22.9886049,18.2805887 23.5180595,17.7707626 C24.097345,17.2174148 24.5489386,16.5428278 25.0877365,15.9521757 C25.5922755,15.4019365 26.0750135,14.77398 26.6200402,14.2610452 C26.7041301,14.1833278 26.7695333,14.1491322 26.8193643,14.1491322 C26.9034541,14.1491322 26.9439418,14.2455017 26.9439418,14.3947191 C26.9439418,14.8299365 26.781991,15.2465017 26.7539611,15.6817191 C26.7259311,16.0671974 26.7539611,16.3998278 26.5795525,16.7542191 C26.405144,17.1148278 26.1591033,17.4256974 25.9068338,17.736567 C25.3960659,18.3583061 24.8821835,18.9707191 24.3340424,19.5520452 C23.2346456,20.7209148 22.0480445,21.9022191 20.6870349,22.7633278 C20.0548039,23.1643496 19.3851996,23.4410235 18.5941322,23.4410235 C18.0491055,23.4410235 17.3545857,23.1612409 16.8905343,22.5519365" id="Fill-6" fill="#FFFFFF"></path>
        <path d="M26.6187944,20.2113996 C27.2105378,19.8383561 27.8053955,19.2943343 28.2819046,18.7782909 C28.4874575,18.5544648 28.6431795,18.2808996 28.8549613,18.0632909 C29.0760864,17.8301387 29.3719581,17.7088996 29.6024265,17.4664213 C30.1225378,16.9099648 30.4806982,16.213617 30.997695,15.6571604 C31.2624222,15.3742691 31.4492886,15.2872257 31.5925527,14.935943 C31.679757,14.7152257 31.8385934,14.3981387 32.134465,14.3297474 C32.3587046,14.2800083 32.744895,14.1463343 32.744895,13.9411604 C32.744895,13.7173343 32.5081976,13.3847039 32.1157784,13.3847039 C31.5925527,13.3847039 30.919834,13.8385735 30.5180714,14.1432257 C29.960587,14.569117 29.3563859,14.9825735 28.8985634,15.5172691 C28.412711,16.0830517 27.929973,16.6799213 27.4877228,17.2830083 C27.2354533,17.6218561 26.9582682,17.9762474 26.7340287,18.3555083 C26.565849,18.6415083 26.4288137,18.939943 26.3571816,19.2508126 C26.288664,19.5554648 26.1890019,19.8072691 26.0706533,20.0559648 C26.0270511,20.146117 26.0145934,20.2145083 26.0145934,20.2673561 C26.0145934,20.3575083 26.0675388,20.3948126 26.1485142,20.3948126 C26.2793206,20.3948126 26.4786447,20.298443 26.6187944,20.2113996 M23.70368,22.300443 C23.376664,21.6787039 23.2738875,20.90153 23.2738875,20.3139865 C23.2738875,19.7917257 23.4576394,19.4093561 23.575988,18.9275083 C23.6351624,18.68503 23.625819,18.4736387 23.7317099,18.2373778 C23.8251431,18.0290952 23.9403773,17.8301387 24.0493827,17.6311822 C24.1833035,17.3855952 24.3016522,17.1368996 24.413772,16.8788778 C24.5072051,16.6643778 24.6317827,16.3130952 24.7719324,16.1576604 C24.8279923,16.0954865 24.8965099,16.0208778 24.9587987,16.0208778 C25.0335452,16.0208778 25.046003,16.1079213 25.123864,16.1079213 C25.2577848,16.1079213 25.1861527,15.8188126 25.3045014,15.6291822 C25.5754575,15.2032909 25.9865634,14.8302474 26.3073506,14.435443 C26.6094511,14.0592909 26.9177805,13.7390952 27.247911,13.3909213 C27.602957,13.0178778 28.0732372,12.8002691 28.4469698,12.4738561 C28.5964629,12.3432909 28.640065,12.1443343 28.7771003,12.0230952 C28.8643046,11.9453778 29.0075688,11.9391604 29.1041164,11.8645517 C29.2318083,11.7712909 29.2754105,11.5847691 29.4217891,11.5847691 C29.5681677,11.5847691 29.7892928,11.6873561 29.960587,11.6873561 C30.0820501,11.6873561 30.1848265,11.6500517 30.1848265,11.5319213 C30.1848265,11.4479865 30.0820501,11.4604213 30.0820501,11.3858126 C30.0820501,11.3143126 30.1661399,11.2521387 30.2190853,11.2210517 C30.4339816,11.0904865 30.841973,10.9723561 31.0724415,10.9443778 C31.2157057,10.9288343 31.3558554,10.931943 31.4991196,10.9257257 C31.5832094,10.922617 31.6641848,10.9163996 31.7451602,10.9008561 C31.8821955,10.8759865 31.9818575,10.8324648 32.0815196,10.8324648 C32.1500372,10.8293561 32.2216693,10.8480083 32.3088736,10.9039648 C32.4926255,11.0220952 32.6327752,11.2365952 32.8165271,11.3671604 C33.0594533,11.5412474 33.3304094,11.6842474 33.5826789,11.8490083 C33.9719837,12.0977039 34.3176864,12.4178996 34.6727324,12.7132257 C35.0277784,13.0116604 35.4326554,13.3318561 35.4326554,13.82303 C35.4326554,14.2986604 35.0994105,14.82403 34.8782853,15.2778996 C34.6322447,15.7877257 34.3176864,16.2447039 33.9782126,16.6923561 C33.3740116,17.4850735 32.6763773,18.3492909 32.3711624,19.3160952 C32.3524757,19.3658343 32.3462468,19.4280083 32.3462468,19.4963996 C32.3462468,19.7668561 32.4739388,20.1243561 32.7262083,20.1243561 C33.1684586,20.1243561 33.7259431,19.4622039 34.0716458,19.1730952 C34.9374597,18.4487691 35.6942682,17.61253 36.4417335,16.7700735 C36.8061228,16.3597257 37.1891987,15.96803 37.553588,15.5545735 C37.7124244,15.3742691 37.8650319,15.1908561 38.008296,14.998117 C38.3072821,14.6033126 38.4567752,14.2271604 38.6311837,14.2271604 C38.7308458,14.2271604 38.7619902,14.3266387 38.7619902,14.4634213 C38.7619902,14.7649648 38.6093827,15.2499213 38.6000394,15.3525083 C38.5470939,15.9213996 38.6374126,16.3845952 38.3757998,16.9223996 C37.8992907,17.9047474 36.999218,18.7720735 36.2704394,19.574117 C35.5354319,20.3823778 34.7661656,21.1937474 33.9034661,21.8652257 C33.3023795,22.33153 32.5050832,22.8413561 31.7109014,22.8413561 C31.4804329,22.8413561 31.2468501,22.7978343 31.0226105,22.6983561 C30.5056137,22.47453 30.3249763,22.0175517 30.1225378,21.5263778 C30.0197613,21.2838996 29.9730447,21.075617 29.9419003,20.8175952 C29.9138704,20.54403 29.9419003,19.9285083 29.6117698,19.940943 C29.2754105,19.9502691 28.9079067,20.6403996 28.7241549,20.8113778 C28.2787902,21.2403778 27.9050575,21.7004648 27.5001805,22.1636604 C27.347573,22.3408561 27.2665976,22.5708996 27.1139902,22.7356604 C26.9302383,22.9377257 26.6187944,23.0278778 26.3696394,23.1273561 C26.0363944,23.2579213 25.6969206,23.3418561 25.351218,23.3418561 C24.5321206,23.3418561 24.0151239,22.8910952 23.70368,22.300443" id="Fill-8" fill="#FFFFFF"></path>
        <g id="Group-12" transform="translate(34.258824, 10.659979)">
            <mask id="mask-4" fill="white">
                <use xlink:href="#path-3"></use>
            </mask>
            <g id="Clip-11"></g>
            <path d="M1.34574888,12.8329594 C1.11839487,12.7210464 0.856782032,12.469242 0.669915722,12.2982638 C0.380272941,12.0371333 0.271267594,11.7666768 0.240123209,11.3749812 C0.233894332,11.2879377 0.227665455,11.182242 0.227665455,11.070329 C0.227665455,10.8216333 0.252580963,10.5418507 0.330441925,10.3491116 C0.374044064,10.2496333 0.489278289,10.1843507 0.529765989,10.1035246 C0.579597005,10.0133725 0.557795936,9.93876377 0.557795936,9.83306812 C0.557795936,9.62478551 0.682373476,9.46935072 0.769577754,9.29526377 C0.803836578,9.23619855 0.850553155,9.16469855 0.859896471,9.09630725 C0.869239786,9.02480725 0.831866524,8.96263333 0.831866524,8.89424203 C0.831866524,8.72326377 0.996931765,8.64554638 1.09970824,8.53052464 C1.22428578,8.39063333 1.29280342,8.22898116 1.37689326,8.06111159 C1.53572963,7.75335072 1.71325262,7.45802464 1.90946225,7.17202464 C2.02158203,7.01658986 2.09944299,6.93576377 2.25516492,6.83006812 C2.3828569,6.73991594 2.43891679,6.63422029 2.53234995,6.51298116 C2.56660877,6.46945942 2.63201198,6.41661159 2.65692749,6.36998116 C2.7067585,6.29226377 2.69118631,6.24252464 2.7223307,6.16480725 C2.77216171,6.02491594 2.85002267,6.04356812 2.91854032,5.92854638 C2.97771465,5.83217681 2.93411251,5.73269855 2.97771465,5.63322029 C3.00263016,5.58037246 3.05557561,5.5555029 3.08360556,5.49954638 C3.11786439,5.42182899 3.11163551,5.33167681 3.13966545,5.25395942 C3.23932749,4.96795942 3.49471144,4.78143768 3.59125904,4.48922029 C3.63797561,4.34932899 3.64420449,4.22808986 3.74698096,4.11306812 C3.83418524,4.01669855 4.11448471,3.96074203 4.11448471,3.80530725 C4.11448471,3.71826377 4.07711144,3.72137246 4.07711144,3.62811159 C4.07711144,3.50065507 4.24529112,3.35454638 4.32003765,3.26128551 C4.51624727,3.00948116 4.71868578,2.70793768 4.86817882,2.42504638 C5.01455743,2.16080725 4.9553831,1.82506812 5.10487615,1.60124203 C5.21699594,1.43337246 5.2948569,1.4053942 5.44746439,1.35876377 C5.58449968,1.31524203 5.60007187,1.28104638 5.69661947,1.1225029 C5.85234139,0.876915942 5.90528684,0.696611594 6.14821305,0.516307246 C6.27901947,0.419937681 6.40982588,0.379524638 6.5406323,0.379524638 C6.73061305,0.379524638 6.9205938,0.466568116 7.10123123,0.594024638 C7.56528257,0.917328986 7.97015957,1.25306812 7.97015957,1.78154638 C7.97015957,1.88724203 7.95770182,1.99604638 7.92344299,2.11417681 C7.73034781,2.80430725 7.22892321,3.44469855 6.85519059,4.0508942 C6.6620954,4.35865507 6.47211465,4.67263333 6.28524834,4.98661159 C6.1606708,5.1980029 5.82431144,5.63011159 5.82431144,5.90367681 C5.82431144,5.99693768 5.86791358,6.03424203 5.92085904,6.03424203 C6.07035209,6.03424203 6.34442267,5.73580725 6.41294032,5.66119855 C6.68078203,5.37519855 6.92993711,5.06432899 7.18843551,4.7690029 C7.68986011,4.19078551 8.21931465,3.66230725 8.79237134,3.15869855 C9.34674139,2.67374203 9.88242481,2.15148116 10.4679393,1.70693768 C10.735781,1.50487246 10.9755927,1.29037246 11.2994943,1.18156812 C11.4521018,1.13182899 11.6140526,1.10385072 11.7666601,1.03856812 C11.9317253,0.970176812 12.050074,0.836502899 12.2120248,0.765002899 C12.2867713,0.730807246 12.3677467,0.718372464 12.4518366,0.718372464 C12.9127735,0.718372464 13.5605767,1.25928551 13.8221895,1.58569855 C13.9872548,1.79087246 14.0713446,2.03335072 14.0713446,2.29448116 C14.0713446,2.6955029 13.8346473,2.97528551 13.6508954,3.30169855 C13.2802772,3.94208986 12.8411414,4.53895942 12.4736376,5.18245942 C12.2493981,5.57726377 11.8756655,5.98761159 11.6358537,6.39795942 C11.4147286,6.77411159 11.3244098,7.14715507 11.1032847,7.50776377 C10.8011842,8.00204638 10.4897403,8.4155029 10.2779585,8.95952464 C10.2312419,9.08076377 10.1378088,9.30148116 10.1378088,9.4848942 C10.1378088,9.67452464 10.2468141,9.7708942 10.430566,9.7708942 C10.7170943,9.7708942 11.1032847,9.53152464 11.2932655,9.43204638 C11.972213,9.06522029 12.504782,8.52430725 13.0435799,7.9865029 C14.1367478,6.90156812 15.1458259,5.73580725 16.1393318,4.55761159 C16.2576804,4.41461159 16.3791435,4.27161159 16.4974922,4.12861159 C16.5379799,4.07887246 16.5940398,3.99493768 16.6563286,3.91722029 C16.7061596,3.85193768 16.7840205,3.74624203 16.8805681,3.74624203 C17.0300612,3.74624203 17.0300612,4.06643768 17.0300612,4.30891594 C17.0300612,4.70682899 17.0176034,5.01148116 16.9926879,5.25395942 C16.9397425,5.7700029 16.9335136,5.95030725 16.7622195,6.25495942 C16.3760291,6.92022029 15.7936291,7.59480725 15.3046622,8.18856812 C14.3360719,9.35432899 13.3674815,10.538742 12.1123628,11.4060681 C11.368012,11.9221116 10.3682772,12.540742 9.41837348,12.540742 C9.01972535,12.540742 8.63353497,12.4319377 8.27848898,12.1645899 C8.01687615,11.968742 7.77083551,11.7293725 7.69297455,11.4029594 C7.59954139,11.0299159 7.40956064,10.753242 7.25383872,10.4081768 C7.15106225,10.1781333 7.10123123,9.92632899 7.10123123,9.67452464 C7.10123123,9.44448116 7.17597775,9.07143768 7.25072428,8.97195942 C7.30678417,8.90045942 7.37218738,8.87248116 7.39710289,8.87248116 C7.51233711,8.87248116 7.48430717,9.10252464 7.5839692,9.10252464 C7.65560128,9.10252464 7.78952214,8.96263333 7.78952214,8.79476377 C7.78952214,8.71704638 7.73034781,8.5553942 7.73034781,8.4155029 C7.73034781,8.14193768 7.94524406,8.14193768 8.13211037,7.88702464 C8.22242909,7.7720029 8.29406118,7.58548116 8.29406118,7.4145029 C8.29406118,7.25285072 8.1663692,7.1285029 8.1663692,6.96063333 C8.1663692,6.63732899 8.45289754,6.27672029 8.59304727,6.00937246 C8.64287829,5.9098942 8.67402267,5.80419855 8.67402267,5.72337246 C8.67402267,5.64876377 8.64599273,5.59902464 8.58370396,5.59902464 C8.54010182,5.59902464 8.47781305,5.6238942 8.39060877,5.68295942 C8.05424941,5.91922029 7.76772107,6.24563333 7.47807829,6.53474203 C6.93616599,7.07876377 6.42539807,7.65387246 5.89905797,8.21654638 C4.84326332,9.3450029 3.74386652,10.4516986 2.81887829,11.6982855 C2.69118631,11.8692638 2.49497668,12.1863507 2.25827936,12.4474812 C2.04649754,12.683742 1.80980021,12.8764812 1.56375957,12.8826986 C1.49212749,12.8826986 1.41738096,12.8671551 1.34574888,12.8329594" id="Fill-10" fill="#FFFFFF" mask="url(#mask-4)"></path>
        </g>
    </g>
</svg>
