<svg width="69px" height="35px" viewBox="0 0 69 35" version="1.1" xmlns="http://www.w3.org/2000/svg" xmlns:xlink="http://www.w3.org/1999/xlink">
    <defs>
        <polygon id="path-1" points="30.3154138 34 0 34 0 0.230286107 30.3154138 0.230286107 30.3154138 34"></polygon>
        <polygon id="path-3" points="22.5971679 17.09435 22.5971679 0.5036 0.302094545 0.5036 0.302094545 17.09435 22.5971679 17.09435"></polygon>
    </defs>
    <g id="Page-1" stroke="none" stroke-width="1" fill="none" fill-rule="evenodd">
        <g id="Group-3" transform="translate(0.000000, 0.144973)">
            <mask id="mask-2" fill="white">
                <use xlink:href="#path-1"></use>
            </mask>
            <g id="Clip-2"></g>
            <path d="M2.13491166,33.8147875 C1.84976086,33.7199125 1.68032342,33.5714125 1.38690738,33.4971625 C1.19267422,33.4435375 0.961247487,33.4311625 0.791810053,33.3115375 C0.585179037,33.1630375 0.585179037,33.0227875 0.469465668,32.8165375 C0.250436791,32.4329125 -0.00165304813,32.2390375 -0.00165304813,31.7399125 C-0.00165304813,30.7911625 0.407476364,29.9537875 0.919921283,28.7162875 C1.3497138,27.6809125 1.84562824,26.7486625 2.38286888,25.7751625 C2.89944642,24.8305375 3.27964749,23.7869125 3.86234695,22.8876625 C4.39132235,22.0585375 5.12692877,21.3449125 5.51539508,20.4415375 C5.9658507,19.4144125 6.68905925,18.4904125 7.29655444,17.5499125 C7.93297797,16.5599125 8.54047316,15.5204125 9.25128385,14.5799125 C9.55296513,14.1880375 9.87530952,13.8291625 10.1150015,13.3919125 C10.3877544,12.9092875 10.6067833,12.4101625 10.9208625,11.9481625 C11.5655512,11.0159125 12.2350357,10.0795375 12.9045202,9.1679125 C13.5409437,8.3057875 14.2806828,6.8867875 14.8716475,6.0535375 C14.9666978,5.9132875 15.0493502,5.7895375 15.0534828,5.6905375 C15.0576154,5.5832875 14.9873609,5.5131625 14.8013929,5.5131625 C14.1443063,5.5131625 13.6483919,5.6740375 12.9954379,5.7730375 C12.5284518,5.8431625 12.0986593,6.0452875 11.6234079,6.1071625 C11.0489737,6.1855375 10.4786721,6.1401625 9.90423786,6.2144125 C8.85041968,6.3505375 7.82139722,6.5526625 6.5361523,7.1054125 C6.15181861,7.2745375 5.50712984,7.3487875 4.98641968,7.3487875 C4.31693519,7.3487875 4.34173091,6.5732875 4.34173091,6.0205375 C4.34173091,5.6575375 4.63514695,5.0140375 4.70953412,4.7087875 C4.83351273,4.2055375 5.06907209,3.5991625 5.44100791,3.2609125 C5.81294374,2.9226625 6.04023786,2.7411625 6.51135658,2.5142875 C6.7799769,2.3864125 7.13951487,2.1141625 7.50731807,2.1141625 C7.7759384,2.1141625 7.83379508,2.3162875 8.0610892,2.3162875 C8.27185283,2.3162875 8.66031914,2.0935375 8.95786781,2.0935375 C9.19342717,2.0935375 9.32980364,2.1595375 9.66454588,2.1595375 C9.88770738,2.1595375 10.0860732,2.1059125 10.3174999,2.0399125 C10.6605074,1.9491625 11.1068304,1.7470375 11.4126443,1.7470375 C11.6688667,1.7470375 11.7391213,1.8501625 11.8630999,1.8419125 C11.9581502,1.8377875 12.090394,1.7387875 12.1606486,1.6934125 C12.4210036,1.5284125 12.4912582,1.5160375 12.7929395,1.4500375 C12.8797245,1.4335375 12.9913052,1.3799125 13.0822229,1.3799125 C13.1607427,1.3799125 13.1979363,1.4665375 13.2847213,1.4665375 C13.4417609,1.4665375 13.4706892,1.3634125 13.6235961,1.3634125 C13.7765031,1.3634125 13.7765031,1.4582875 13.9376753,1.4582875 C14.0327256,1.4582875 14.1484389,1.3922875 14.2310913,1.3840375 C14.5327726,1.3386625 14.8013929,1.3304125 15.0989416,1.2479125 C15.5659277,1.1200375 16.1279641,0.8725375 16.4998999,0.8725375 C16.7313266,0.8725375 17.0743341,1.0086625 17.3553523,1.0169125 C17.4504026,1.0210375 17.5495855,1.0086625 17.6859619,0.9880375 C18.7315149,0.8354125 19.8142614,0.4641625 20.8763448,0.4641625 C21.2648111,0.4641625 21.636747,0.6539125 22.0086828,0.6539125 C22.4136796,0.6539125 22.7484218,0.4394125 23.1947448,0.4394125 C23.4550999,0.4394125 23.4922935,0.4930375 23.7485159,0.4889125 C23.9882079,0.4847875 24.0336667,0.3899125 24.215502,0.2909125 C24.4056026,0.1836625 24.6039683,0.2496625 24.8105994,0.2579125 C25.1742699,0.2785375 25.5379405,0.2620375 25.8974785,0.2620375 C26.3520667,0.2620375 26.8975726,0.2991625 27.4348133,0.4105375 C28.1208282,0.5590375 28.7903127,0.8436625 29.2407683,1.3634125 C29.5135213,1.6810375 29.6870913,2.0687875 29.9887726,2.3657875 C30.1168839,2.4936625 30.2160667,2.5637875 30.2615256,2.7535375 C30.3028518,2.9309125 30.3400453,3.1577875 30.2945865,3.3269125 C30.2573929,3.4671625 30.1334143,3.6651625 30.0218336,3.7559125 C29.8565288,3.8879125 29.7408154,3.7971625 29.5796432,3.8796625 C29.3854101,3.9827875 29.3564817,4.1890375 29.1333202,4.1890375 C28.9638828,4.1890375 28.6911298,4.0487875 28.5423555,4.0487875 C28.3563876,4.0487875 28.2448068,4.1436625 28.0092475,4.1436625 C27.8439427,4.1436625 27.7158314,4.0487875 27.5050678,4.0487875 C27.186856,4.0487875 26.9512967,4.2137875 26.6785437,4.2137875 C26.4305865,4.2137875 26.1950272,4.1312875 25.9429373,4.1312875 C25.4924817,4.1312875 25.0833523,4.2921625 24.5791726,4.4117875 C24.0708603,4.5314125 23.4096411,4.5520375 22.8269416,4.6427875 C22.3971491,4.7087875 21.7896539,4.7046625 21.3557288,4.7252875 C20.7730293,4.7541625 20.5540004,4.7582875 20.2027277,5.2821625 C19.9134443,5.7111625 19.6200282,6.2185375 19.1199812,7.1012875 C18.8678913,7.5467875 18.512486,7.9262875 18.2851919,8.3882875 C17.8677972,9.2421625 17.1156603,9.8567875 16.6734699,10.7024125 C16.1816881,11.6346625 15.5204689,12.4720375 14.9997587,13.3919125 C14.7765972,13.7920375 14.6360881,14.2210375 14.4129266,14.6211625 C14.1236432,15.1285375 13.7393095,15.5657875 13.4210978,16.0525375 C13.2020689,16.3990375 13.0863555,16.9394125 12.8590614,17.2817875 C12.6069716,17.6654125 12.2185052,17.9129125 11.9664154,18.3047875 C11.7763149,18.6100375 11.4622357,18.8451625 11.3382571,19.1792875 C11.1605544,19.6412875 11.0655042,19.9547875 10.8134143,20.3714125 C10.251378,21.3036625 9.61908706,22.0832875 9.10664214,23.0444125 C8.8752154,23.4734125 8.75536941,23.9560375 8.52394267,24.3809125 C8.26772021,24.8511625 7.88751914,25.2677875 7.58997048,25.7091625 C7.0857908,26.4722875 6.92875123,27.1982875 6.22620578,28.0109125 C5.9865138,28.2831625 5.90799401,28.7369125 5.7840154,29.0834125 C5.60218011,29.6031625 5.37488599,30.0486625 5.10213305,30.5271625 C4.59382075,31.4346625 4.26321112,32.4329125 3.67224642,33.2702875 C3.52760471,33.4724125 3.19286246,34.0004125 2.77133519,34.0004125 C2.57710203,34.0004125 2.29195123,33.8642875 2.13491166,33.8147875" id="Fill-1" fill="#FFFFFF" mask="url(#mask-2)"></path>
        </g>
        <path d="M19.6088702,13.60041 C19.6088702,12.32991 20.5593728,11.022285 21.5801301,10.378785 C22.0636466,10.073535 22.8777728,9.79716 23.4191461,9.79716 C24.1010284,9.79716 24.6424017,10.90266 24.6424017,11.698785 C24.6424017,12.309285 24.3861793,13.076535 23.931591,13.736535 C23.5307268,14.314035 23.0472103,14.965785 22.4934391,15.411285 C22.1628295,15.67941 21.6917108,15.931035 21.2412552,15.931035 C20.2328958,15.931035 19.6088702,14.37591 19.6088702,13.60041 M12.546222,32.299035 C12.0048488,32.03916 11.7940851,31.581285 11.5295974,31.07391 C11.1700595,30.385035 10.9882242,29.659035 10.9882242,29.01966 C10.9882242,28.41741 11.1452637,27.77391 11.2196509,27.31191 C11.3105686,26.738535 11.6825044,26.540535 11.9593899,26.053785 C12.0337771,25.91766 12.3065301,25.476285 12.3065301,25.311285 C12.3065301,25.105035 12.0503076,25.204035 12.0503076,25.006035 C12.0503076,24.82866 12.2569386,24.676035 12.3643867,24.53991 C12.5627525,24.288285 12.7156595,24.02841 12.8603012,23.73966 C13.0875953,23.306535 13.3148894,22.918785 13.645499,22.55166 C14.0009044,22.168035 14.0091696,21.75141 14.2860552,21.334785 C14.5298798,20.963535 14.7282456,20.57166 14.9679375,20.20041 C15.2530883,19.77141 15.5217087,19.24341 15.844053,18.843285 C16.149867,18.472035 16.6416488,18.21216 16.9144017,17.82441 C17.0011867,17.70891 17.0011867,17.572785 17.0549108,17.449035 C17.1582263,17.193285 17.3483268,17.044785 17.54256,16.863285 C17.8277108,16.591035 18.162453,16.013535 18.6294391,16.013535 C18.9021921,16.013535 19.0964252,16.23216 19.2534648,16.393035 C19.4518306,16.60341 19.7039204,16.756035 19.9064188,16.96641 C20.1957022,17.275785 20.307283,17.630535 20.307283,17.99766 C20.307283,18.744285 19.86096,19.54866 19.4972894,20.146785 C19.2038734,20.62941 18.8443354,21.079035 18.5881129,21.582285 C18.3277579,22.093785 18.1417899,22.60116 17.7739867,23.05491 C17.6169472,23.25291 17.4309793,23.405535 17.3070006,23.628285 C17.1788894,23.851035 17.1251653,24.11091 16.9929215,24.337785 C16.736699,24.77091 16.3399675,25.105035 16.0796124,25.53816 C15.7985942,26.00841 15.4803825,26.46216 15.2076295,26.928285 C14.930744,27.39441 14.5794712,28.652535 14.5753386,28.97016 C14.5670734,29.23416 14.6869194,29.337285 14.8728873,29.337285 C15.3853322,29.337285 16.3936916,28.57416 16.6953728,28.32666 C17.6128145,27.588285 18.8236723,26.70141 19.6088702,25.82691 C20.4312616,24.91116 22.4686434,22.81566 23.2290456,21.85041 C23.6092466,21.367785 24.0101108,20.89341 24.3903119,20.410785 C24.5597493,20.196285 24.7291867,19.981785 24.8944916,19.767285 C25.150714,19.44141 25.3490798,19.02891 25.5763739,19.02891 C25.9772381,19.02891 26.0392274,19.93641 26.0516252,20.229285 C26.0805536,20.89341 25.956575,21.41316 25.6879547,22.00716 C25.1920402,23.11266 24.3076595,24.16041 23.6216445,25.10916 C23.2207803,25.66191 21.4850798,27.42741 21.0428894,27.951285 C20.6254948,28.446285 19.621268,29.29191 19.1708124,29.758035 C18.2161771,30.748035 17.4144488,31.24716 16.2201215,31.96491 C15.5465044,32.36916 14.7654391,32.61666 13.9843739,32.61666 C13.4967247,32.61666 13.0049429,32.521785 12.546222,32.299035" id="Fill-4" fill="#FFFFFF"></path>
        <path d="M22.4124398,29.924685 C22.0859628,29.495685 21.8710665,29.24406 21.8297403,28.70781 C21.800812,28.348935 21.7512205,28.07256 21.7512205,27.73431 C21.7512205,27.457935 21.854536,27.10731 21.854536,26.929935 C21.854536,26.67006 21.8132098,26.575185 21.8132098,26.426685 C21.8132098,26.06781 21.8999949,25.79556 22.2058088,25.57281 C22.3297874,25.486185 22.4578986,25.395435 22.540551,25.24281 C22.5860098,25.164435 22.5984077,25.114935 22.5984077,25.081935 C22.5984077,25.01181 22.5281532,25.02831 22.4702965,24.892185 C22.4331029,24.817935 22.3463179,24.809685 22.3463179,24.718935 C22.3463179,24.65706 22.4744291,24.553935 22.5033574,24.471435 C22.5653467,24.31056 22.4992248,24.09606 22.5777446,23.95581 C22.6686622,23.80731 22.8918237,23.737185 22.9992719,23.588685 C23.193505,23.32881 23.1439136,23.02356 23.3836056,22.79256 C23.5241147,22.66056 23.586104,22.656435 23.7018173,22.47906 C23.8381938,22.268685 24.0158965,22.078935 24.1357425,21.86031 C24.325843,21.493185 24.499413,21.20031 24.7515029,20.86206 C24.8217574,20.76306 25.1151735,20.44956 25.1151735,20.27631 C25.1151735,20.197935 25.0779799,20.12781 25.0242558,20.12781 C24.9622665,20.123685 24.8961446,20.197935 24.8217574,20.197935 C24.7597681,20.197935 24.7349724,20.16906 24.7349724,20.115435 C24.7349724,19.74006 26.1152676,18.333435 26.2516441,18.09006 C26.3260312,17.953935 26.3466943,17.79306 26.4334794,17.665185 C26.5285296,17.52906 26.6814366,17.450685 26.7847521,17.31456 C27.003781,17.02581 27.0823007,16.666935 27.3178601,16.35756 C27.5947457,15.990435 27.8427029,15.59856 28.1071906,15.21906 C28.3468826,14.87256 28.842797,14.323935 28.842797,13.911435 C28.842797,13.65156 28.6816248,13.630935 28.5328505,13.630935 C28.3716783,13.630935 28.2600975,13.688685 28.0245382,13.688685 C27.8509681,13.688685 27.7807136,13.65981 27.623674,13.63506 C27.3261253,13.597935 27.2145446,13.523685 26.9789852,13.37106 C26.5946516,13.11531 26.045013,13.210185 25.6482815,12.97506 C25.2556826,12.74406 25.1482344,12.19956 25.0035927,11.799435 C24.9333382,11.60556 24.8300227,11.39931 24.8300227,11.24256 C24.8300227,11.11881 24.8961446,11.01981 25.1027756,10.97856 C25.6606794,10.867185 26.2433788,10.81356 26.8054152,10.73106 C27.8427029,10.57431 28.4378002,10.429935 29.4792205,10.30206 C29.9007478,10.248435 30.8223221,10.28556 31.2314516,10.17006 C31.6653767,10.042185 31.8513446,9.670935 32.0993018,9.324435 C32.6241446,8.58606 33.2647007,7.946685 33.8102066,7.212435 C34.0664291,6.865935 34.3846409,6.51531 34.6036697,6.148185 C34.69872,5.98731 34.7359136,5.809935 34.8020355,5.636685 C34.8970858,5.372685 35.058258,5.21181 35.2152975,4.98906 C35.4591221,4.65081 35.558305,4.12281 36.037689,4.12281 C36.3889617,4.12281 36.7815606,4.374435 37.0625788,4.522935 C37.756859,4.894185 38.2817018,5.479935 38.2817018,6.247185 C38.2817018,6.948435 37.9221639,7.37331 37.550228,7.839435 C37.223751,8.24781 36.9551307,8.697435 36.6699799,9.126435 C36.5460013,9.31206 36.3517681,9.51831 36.3517681,9.68331 C36.3517681,9.87306 36.6947756,9.97206 36.9509981,9.97206 C37.3064034,9.97206 37.6163499,9.90606 37.9758879,9.84006 C38.236243,9.794685 38.6412398,9.79881 39.0049104,9.79881 C39.3768462,9.79881 40.3066858,9.87306 40.6703564,10.207185 C40.9307114,10.44231 40.9761703,10.908435 41.1373425,11.21781 C41.240658,11.41581 41.3191778,11.55606 41.3191778,11.733435 C41.3191778,11.93556 41.2199949,12.17481 40.9596398,12.28206 C40.5505104,12.44706 40.0959221,12.484185 39.6785275,12.63681 C39.1536847,12.82656 38.6371072,12.86781 38.0874687,12.937935 C37.8395114,12.96681 37.6080847,12.99981 37.3890558,12.99981 C37.170027,12.99981 36.9799264,12.94206 36.7361018,12.94206 C36.5088077,12.94206 36.1327393,13.012185 35.8517211,13.012185 C35.6202943,13.012185 35.4260612,13.07406 35.3227457,13.102935 C35.1285125,13.160685 34.9301467,13.23081 34.7193831,13.23081 C34.5127521,13.23081 34.4507628,13.14831 34.2110708,13.14831 C34.1118879,13.14831 33.9796441,13.177185 33.9796441,13.251435 C33.9796441,13.333935 34.078827,13.358685 34.078827,13.44531 C34.078827,13.523685 33.9548483,13.589685 33.719289,13.672185 C32.8473061,13.97331 32.5042986,15.10356 32.0662409,15.85431 C31.5496633,16.732935 30.8967093,17.51256 30.3429382,18.37056 C29.7561061,19.282185 29.322181,20.27631 28.6857574,21.163185 C28.156782,21.897435 27.5658173,22.565685 27.1401574,23.374185 C26.8963328,23.84031 26.817813,24.314685 26.5409275,24.776685 C26.2433788,25.25106 25.9334323,25.725435 25.6854751,26.228685 C25.5821596,26.443185 25.3796612,26.80206 25.3755286,27.103185 C25.3672633,27.36306 25.5408334,27.56931 25.8259842,27.56931 C26.0698088,27.56931 26.3549596,27.43731 26.5409275,27.350685 C27.4707671,26.90106 28.276628,26.24931 29.0163671,25.53981 C29.7230451,24.85506 30.5041104,24.256935 31.2066558,23.580435 C31.9753232,22.846185 32.5745532,21.95106 33.2894965,21.16731 C33.958981,20.437185 34.5995371,19.603935 35.3227457,18.92331 C35.4343264,18.820185 35.5211114,18.77481 35.5872334,18.77481 C35.6988141,18.77481 35.7525382,18.902685 35.7525382,19.100685 C35.7525382,19.678185 35.5376419,20.230935 35.5004483,20.808435 C35.4632548,21.319935 35.5004483,21.76131 35.2690216,22.23156 C35.0375949,22.71006 34.7111179,23.12256 34.3763756,23.53506 C33.6986259,24.36006 33.0167435,25.172685 32.2894024,25.94406 C30.8305874,27.49506 29.256059,29.06256 27.450104,30.205185 C26.611182,30.73731 25.7226687,31.104435 24.6729831,31.104435 C23.9497745,31.104435 23.0282002,30.733185 22.4124398,29.924685" id="Fill-6" fill="#FFFFFF"></path>
        <path d="M35.3210926,26.8189725 C36.1062905,26.3239725 36.895621,25.6020975 37.5279119,24.9173475 C37.8006648,24.6203475 38.0072958,24.2573475 38.288314,23.9685975 C38.5817301,23.6592225 38.974329,23.4983475 39.2801429,23.1765975 C39.9702905,22.4382225 40.4455418,21.5142225 41.1315568,20.7758475 C41.4828295,20.4004725 41.7307867,20.2849725 41.9208873,19.8188475 C42.0366006,19.5259725 42.2473643,19.1052225 42.6399632,19.0144725 C42.9375119,18.9484725 43.4499568,18.7710975 43.4499568,18.4988475 C43.4499568,18.2018475 43.1358776,17.7604725 42.6151675,17.7604725 C41.9208873,17.7604725 41.0282413,18.3627225 40.4951333,18.7669725 C39.7553942,19.3320975 38.9536659,19.8807225 38.3461707,20.5902225 C37.7014819,21.3409725 37.0609258,22.1329725 36.4740937,22.9332225 C36.1393514,23.3828475 35.7715482,23.8530975 35.4739996,24.3563475 C35.2508381,24.7358475 35.0690028,25.1318475 34.9739525,25.5443475 C34.8830349,25.9485975 34.750791,26.2827225 34.5937514,26.6127225 C34.5358948,26.7323475 34.5193643,26.8230975 34.5193643,26.8932225 C34.5193643,27.0128475 34.5896188,27.0623475 34.697067,27.0623475 C34.870637,27.0623475 35.1351247,26.9344725 35.3210926,26.8189725 M31.45296,29.5909725 C31.0190349,28.7659725 30.8826584,27.7347225 30.8826584,26.9550975 C30.8826584,26.2620975 31.126483,25.7547225 31.2835226,25.1153475 C31.3620424,24.7935975 31.3496445,24.5130975 31.4901536,24.1995975 C31.6141322,23.9232225 31.7670391,23.6592225 31.9116809,23.3952225 C32.0893835,23.0693475 32.2464231,22.7393475 32.3951974,22.3969725 C32.519176,22.1123475 32.6844809,21.6462225 32.8704488,21.4399725 C32.9448359,21.3574725 33.0357536,21.2584725 33.118406,21.2584725 C33.2175889,21.2584725 33.2341194,21.3739725 33.3374349,21.3739725 C33.5151375,21.3739725 33.4200873,20.9903475 33.5771268,20.7387225 C33.9366648,20.1735975 34.4821707,19.6785975 34.9078306,19.1547225 C35.3086948,18.6555975 35.7178242,18.2307225 36.1558819,17.7687225 C36.6270006,17.2737225 37.2510263,16.9849725 37.7469407,16.5518475 C37.9453065,16.3785975 38.0031632,16.1145975 38.1849985,15.9537225 C38.3007119,15.8505975 38.4908124,15.8423475 38.6189236,15.7433475 C38.7883611,15.6195975 38.8462178,15.3720975 39.0404509,15.3720975 C39.2346841,15.3720975 39.5281001,15.5082225 39.7553942,15.5082225 C39.9165664,15.5082225 40.0529429,15.4587225 40.0529429,15.3019725 C40.0529429,15.1905975 39.9165664,15.2070975 39.9165664,15.1080975 C39.9165664,15.0132225 40.0281472,14.9307225 40.0984017,14.8894725 C40.3835525,14.7162225 40.9249258,14.5594725 41.2307397,14.5223475 C41.4208402,14.5017225 41.6068081,14.5058475 41.7969087,14.4975975 C41.9084894,14.4934725 42.0159375,14.4852225 42.1233857,14.4645975 C42.305221,14.4315975 42.4374648,14.3738475 42.5697087,14.3738475 C42.6606263,14.3697225 42.7556766,14.3944725 42.8713899,14.4687225 C43.1152145,14.6254725 43.3011825,14.9100975 43.5450071,15.0833475 C43.8673514,15.3143475 44.2268894,15.5040975 44.5616317,15.7227225 C45.0782092,16.0527225 45.5369301,16.4775975 46.0080488,16.8694725 C46.4791675,17.2654725 47.0164081,17.6903475 47.0164081,18.3420975 C47.0164081,18.9732225 46.5742178,19.6703475 46.2808017,20.2725975 C45.9543247,20.9490975 45.5369301,21.5554725 45.0864744,22.1494725 C44.2847461,23.2013475 43.3590391,24.3480975 42.9540424,25.6309725 C42.9292466,25.6969725 42.9209814,25.7794725 42.9209814,25.8702225 C42.9209814,26.2290975 43.0904188,26.7034725 43.4251611,26.7034725 C44.0119932,26.7034725 44.7517322,25.8248475 45.210453,25.4412225 C46.3593215,24.4800975 47.3635482,23.3704725 48.3553771,22.2525975 C48.8388937,21.7080975 49.347206,21.1883475 49.8307226,20.6397225 C50.0414862,20.4004725 50.2439846,20.1570975 50.4340851,19.9013475 C50.8308167,19.3774725 51.0291825,18.8783475 51.2606092,18.8783475 C51.392853,18.8783475 51.4341793,19.0103475 51.4341793,19.1918475 C51.4341793,19.5919725 51.2316809,20.2354725 51.219283,20.3715975 C51.1490284,21.1264725 51.2688744,21.7410975 50.9217343,22.4547225 C50.2894434,23.7582225 49.0951161,24.9090975 48.128083,25.9733475 C47.1527846,27.0458475 46.1320274,28.1224725 44.9872916,29.0134725 C44.1896958,29.6322225 43.131745,30.3087225 42.0779268,30.3087225 C41.7721129,30.3087225 41.4621664,30.2509725 41.1646178,30.1189725 C40.4786028,29.8219725 40.2389108,29.2155975 39.9702905,28.5638475 C39.833914,28.2420975 39.7719247,27.9657225 39.7305985,27.6233475 C39.6934049,27.2603475 39.7305985,26.4435975 39.2925407,26.4600975 C38.8462178,26.4724725 38.3585686,27.3882225 38.114744,27.6150975 C37.5237793,28.1843475 37.0278648,28.7948475 36.4906242,29.4094725 C36.2881258,29.6445975 36.1806776,29.9498475 35.9781793,30.1684725 C35.7343547,30.4365975 35.3210926,30.5562225 34.990483,30.6882225 C34.5482926,30.8614725 34.097837,30.9728475 33.6391161,30.9728475 C32.552237,30.9728475 31.866222,30.3747225 31.45296,29.5909725" id="Fill-8" fill="#FFFFFF"></path>
        <g id="Group-12" transform="translate(45.458824, 14.144973)">
            <mask id="mask-4" fill="white">
                <use xlink:href="#path-3"></use>
            </mask>
            <g id="Clip-11"></g>
            <path d="M1.78570524,17.02835 C1.48402396,16.87985 1.13688385,16.545725 0.888926631,16.31885 C0.504592941,15.97235 0.35995123,15.613475 0.318625027,15.093725 C0.310359786,14.978225 0.302094545,14.837975 0.302094545,14.689475 C0.302094545,14.359475 0.335155508,13.988225 0.438471016,13.732475 C0.496327701,13.600475 0.649234652,13.51385 0.702958717,13.4066 C0.769080642,13.286975 0.740152299,13.187975 0.740152299,13.047725 C0.740152299,12.77135 0.905457112,12.5651 1.02117048,12.3341 C1.0666293,12.255725 1.12861861,12.16085 1.14101647,12.0701 C1.15341433,11.975225 1.10382289,11.892725 1.10382289,11.801975 C1.10382289,11.5751 1.32285176,11.471975 1.45922824,11.31935 C1.62453305,11.133725 1.7154507,10.919225 1.82703144,10.696475 C2.03779508,10.2881 2.27335444,9.896225 2.53370952,9.516725 C2.68248385,9.310475 2.78579936,9.203225 2.99243037,9.062975 C3.16186781,8.94335 3.23625497,8.8031 3.36023358,8.642225 C3.40569241,8.584475 3.49247743,8.51435 3.5255384,8.452475 C3.59166032,8.34935 3.57099722,8.28335 3.61232342,8.180225 C3.67844535,7.9946 3.78176086,8.01935 3.8726785,7.866725 C3.95119829,7.73885 3.8933416,7.60685 3.95119829,7.47485 C3.98425925,7.404725 4.0545138,7.371725 4.09170738,7.297475 C4.1371662,7.19435 4.12890096,7.074725 4.16609455,6.9716 C4.2983384,6.5921 4.63721326,6.3446 4.76532449,5.95685 C4.8273138,5.771225 4.83557904,5.61035 4.97195551,5.457725 C5.08766888,5.32985 5.45960471,5.2556 5.45960471,5.04935 C5.45960471,4.93385 5.41001326,4.937975 5.41001326,4.814225 C5.41001326,4.6451 5.63317476,4.451225 5.73235765,4.327475 C5.99271273,3.99335 6.26133305,3.593225 6.45969882,3.21785 C6.65393198,2.867225 6.57541219,2.421725 6.77377797,2.124725 C6.9225523,1.901975 7.02586781,1.86485 7.2283662,1.802975 C7.4102015,1.745225 7.4308646,1.69985 7.55897583,1.489475 C7.76560684,1.1636 7.83586139,0.92435 8.15820578,0.6851 C8.33177583,0.557225 8.50534588,0.5036 8.67891594,0.5036 C8.93100578,0.5036 9.18309561,0.6191 9.42278759,0.788225 C10.038548,1.217225 10.5757887,1.662725 10.5757887,2.363975 C10.5757887,2.504225 10.5592582,2.6486 10.5137994,2.80535 C10.2575769,3.7211 9.59222503,4.57085 9.09631059,5.375225 C8.84008813,5.7836 8.58799829,6.200225 8.34004107,6.61685 C8.17473626,6.89735 7.72841326,7.470725 7.72841326,7.833725 C7.72841326,7.957475 7.78626995,8.006975 7.85652449,8.006975 C8.05489027,8.006975 8.41856086,7.610975 8.5094785,7.511975 C8.86488385,7.132475 9.19549348,6.719975 9.53850096,6.3281 C10.2038528,5.56085 10.9063983,4.8596 11.6668004,4.19135 C12.4024068,3.54785 13.1132175,2.85485 13.8901502,2.264975 C14.2455555,1.99685 14.5637673,1.712225 14.9935598,1.56785 C15.1960582,1.50185 15.4109544,1.464725 15.6134528,1.3781 C15.8324817,1.28735 15.9895213,1.109975 16.2044175,1.0151 C16.3036004,0.969725 16.4110486,0.953225 16.5226293,0.953225 C17.1342571,0.953225 17.9938421,1.670975 18.3409822,2.1041 C18.5600111,2.37635 18.6715919,2.6981 18.6715919,3.0446 C18.6715919,3.576725 18.3575127,3.947975 18.1136881,4.3811 C17.6219063,5.23085 17.0392068,6.02285 16.5515576,6.876725 C16.254009,7.4006 15.7580945,7.9451 15.4398828,8.4896 C15.1464667,8.988725 15.0266207,9.483725 14.7332047,9.962225 C14.3323405,10.6181 13.9190785,11.166725 13.6380603,11.8886 C13.576071,12.049475 13.4520924,12.34235 13.4520924,12.585725 C13.4520924,12.83735 13.5967341,12.965225 13.8405587,12.965225 C14.2207598,12.965225 14.7332047,12.6476 14.9852945,12.5156 C15.8862058,12.02885 16.5928839,11.3111 17.3078272,10.597475 C18.7583769,9.15785 20.0973459,7.610975 21.4156518,6.0476 C21.5726913,5.85785 21.7338635,5.6681 21.8909031,5.47835 C21.9446272,5.41235 22.0190143,5.300975 22.1016667,5.19785 C22.1677887,5.111225 22.2711042,4.970975 22.3992154,4.970975 C22.5975812,4.970975 22.5975812,5.39585 22.5975812,5.7176 C22.5975812,6.2456 22.5810507,6.64985 22.5479897,6.9716 C22.4777352,7.65635 22.4694699,7.8956 22.2421758,8.29985 C21.7297309,9.1826 20.9569309,10.077725 20.3081095,10.8656 C19.0228646,12.412475 17.7376197,13.9841 16.0721737,15.134975 C15.0844774,15.819725 13.7579063,16.6406 12.4974571,16.6406 C11.9684817,16.6406 11.4560368,16.496225 10.9849181,16.141475 C10.637778,15.8816 10.311301,15.563975 10.2079855,15.13085 C10.0840068,14.63585 9.83191701,14.268725 9.62528599,13.81085 C9.48890952,13.5056 9.42278759,13.171475 9.42278759,12.83735 C9.42278759,12.5321 9.52197048,12.0371 9.62115337,11.9051 C9.69554053,11.810225 9.78232556,11.7731 9.81538652,11.7731 C9.96829348,11.7731 9.93109989,12.07835 10.0633437,12.07835 C10.158394,12.07835 10.3360967,11.892725 10.3360967,11.669975 C10.3360967,11.56685 10.2575769,11.35235 10.2575769,11.166725 C10.2575769,10.803725 10.5427277,10.803725 10.7906849,10.465475 C10.9105309,10.31285 11.0055812,10.06535 11.0055812,9.838475 C11.0055812,9.623975 10.8361437,9.458975 10.8361437,9.236225 C10.8361437,8.807225 11.2163448,8.328725 11.4023127,7.973975 C11.4684347,7.841975 11.5097609,7.701725 11.5097609,7.594475 C11.5097609,7.495475 11.4725673,7.429475 11.3899149,7.429475 C11.3320582,7.429475 11.2494058,7.462475 11.1336924,7.54085 C10.6873694,7.85435 10.3071683,8.287475 9.92283465,8.6711 C9.20375872,9.392975 8.52600898,10.1561 7.82759615,10.902725 C6.42663786,12.4001 4.96782289,13.8686 3.74043465,15.522725 C3.57099722,15.7496 3.31064214,16.17035 2.99656299,16.51685 C2.71554481,16.83035 2.40146567,17.0861 2.07498866,17.09435 C1.9799384,17.09435 1.88075551,17.073725 1.78570524,17.02835" id="Fill-10" fill="#FFFFFF" mask="url(#mask-4)"></path>
        </g>
    </g>
</svg>
